HIERARCHY
ROOT MidHip
{
    OFFSET 0.0 0.0 0.0
    CHANNELS 6 Xposition Yposition Zposition Zrotation Xrotation Yrotation
    JOINT Spine
    {
        OFFSET 0.0 0.0 13.793179754071973
        CHANNELS 3 Zrotation Xrotation Yrotation
        JOINT MidShoulder
        {
            OFFSET 0.0 0.0 13.793179754071973
            CHANNELS 3 Zrotation Xrotation Yrotation
            JOINT Nose
            {
                OFFSET 0.0 0.0 11.766611746094508
                CHANNELS 3 Zrotation Xrotation Yrotation
                End Site
                {
                    OFFSET 0.0 0.0 4.7066446984378025
                }
            }
            JOINT RightShoulder
            {
                OFFSET -9.18710738646973 0.0 0.0
                CHANNELS 3 Zrotation Xrotation Yrotation
                JOINT RightElbow
                {
                    OFFSET -14.214874277997701 0.0 0.0
                    CHANNELS 3 Zrotation Xrotation Yrotation
                    JOINT RightWrist
                    {
                        OFFSET -12.455885454398851 0.0 0.0
                        CHANNELS 3 Zrotation Xrotation Yrotation
                        End Site
                        {
                            OFFSET -3.5230564281953227 3.5230564281953227 0.0
                        }
                        End Site
                        {
                            OFFSET -4.98235418175954 0.0 0.0
                        }
                        End Site
                        {
                            OFFSET -3.5230564281953227 -3.5230564281953227 0.0
                        }
                    }
                }
            }
            JOINT LeftShoulder
            {
                OFFSET 9.18710738646973 0.0 0.0
                CHANNELS 3 Zrotation Xrotation Yrotation
                JOINT LeftElbow
                {
                    OFFSET 14.214874277997701 0.0 0.0
                    CHANNELS 3 Zrotation Xrotation Yrotation
                    JOINT LeftWrist
                    {
                        OFFSET 12.455885454398851 0.0 0.0
                        CHANNELS 3 Zrotation Xrotation Yrotation
                        End Site
                        {
                            OFFSET 3.5230564281953227 3.5230564281953227 0.0
                        }
                        End Site
                        {
                            OFFSET 4.98235418175954 0.0 0.0
                        }
                        End Site
                        {
                            OFFSET 3.5230564281953227 -3.5230564281953227 0.0
                        }
                    }
                }
            }
        }
    }
    JOINT RightHip
    {
        OFFSET -5.228159949566038 0.0 0.0
        CHANNELS 3 Zrotation Xrotation Yrotation
        JOINT RightKnee
        {
            OFFSET 0.0 0.0 -19.220720234385468
            CHANNELS 3 Zrotation Xrotation Yrotation
            JOINT RightAnkle
            {
                OFFSET 0.0 0.0 -20.30758457654049
                CHANNELS 3 Zrotation Xrotation Yrotation
                End Site
                {
                    OFFSET 0.0 5.743852305436449 -5.743852305436449
                }
                End Site
                {
                    OFFSET 0.0 -5.743852305436449 -5.743852305436449
                }
            }
        }
    }
    JOINT LeftHip
    {
        OFFSET 5.228159949566038 0.0 0.0
        CHANNELS 3 Zrotation Xrotation Yrotation
        JOINT LeftKnee
        {
            OFFSET 0.0 0.0 -19.220720234385468
            CHANNELS 3 Zrotation Xrotation Yrotation
            JOINT LeftAnkle
            {
                OFFSET 0.0 0.0 -20.30758457654049
                CHANNELS 3 Zrotation Xrotation Yrotation
                End Site
                {
                    OFFSET 0.0 5.743852305436449 -5.743852305436449
                }
                End Site
                {
                    OFFSET 0.0 -5.743852305436449 -5.743852305436449
                }
            }
        }
    }
}
MOTION
Frames: 4
Frame Time: 0.03333333333333333
-15.900745159811361 43.910560349738915 18.646085247506385 -120.23482977385979 -72.79173897957497 -112.59272612438471 1.4535114981668436 10.281597212852764 -8.582234979696054 -8.464674400297588 1.2731917719614064e-14 5.726076154882194e-15 1.5902773407317584e-15 0.0 0.0 146.610010386444 -1.4744491697706008 -112.44862544866895 121.23073283576322 1.0695296485941483e-14 6.935252547051971e-15 27.723591089427874 -1.3422093163260391 0.7052806326253119 -129.27051349153146 -4.376068851974046 103.85030086301057 -115.70445426748142 -3.086503804522498e-16 1.1463498593613561e-14 -26.377819704132637 24.79110215221769 -168.25300655793896 2.647897525299175 18.282359867131053 -4.812699614382507 -1.3165744737887477 -20.19806669456839 -5.232718014859803 1.5902773407317584e-15 0.0 0.0 1.4439725766400626 10.215561924811997 -6.843891266168575 -0.1498411286900277 -6.859011763843847 5.362475628072544 -1.5902773407317584e-15 0.0 0.0
-15.86475108708025 43.78565145458586 18.623897430804064 -119.22397257468704 -72.80607266915572 -111.58450178718915 1.2163229971000105 9.686297132730271 -8.598231383355316 -9.100229383212032 -7.530010205230328e-15 -5.992521551188463e-16 1.5902773407317584e-15 0.0 0.0 146.73164433840702 -1.1706542148494445 -111.45179481985578 121.1539811997407 2.343688332395052e-15 -4.1554738820739995e-15 30.55935206736128 -3.932415621271233 2.3187709330067694 -130.41670592497235 -5.8457376690046035 104.45256724276311 -118.83371268399631 9.334224552115712e-15 -9.211027597447075e-15 -24.050563915216575 26.393953223994693 -168.77865484244302 2.197599906386612 17.136489549776034 -4.66943936831511 -0.9394535253987548 -18.841681881733425 -5.671479224335169 -7.951386703658792e-16 -6.361109362927033e-15 -7.951386703658792e-16 1.34642704327581 10.699412187669628 -6.380774358377863 -0.11720898598519008 -7.995278916244814 4.219781095007359 -1.5902773407317584e-15 0.0 0.0
-15.994684551853606 43.773310131818526 18.480127896249805 -117.92469034705151 -72.37557450092469 -109.99177940970768 1.1962672464043598 9.57537276190649 -8.496108345552601 -8.593517007160795 -1.6531833235319415e-14 -2.836853830228221e-15 0.0 0.0 0.0 145.88593243241 -2.6831530157706958 -111.02802343357153 120.89686159497491 -7.1022771983390514e-15 -3.705388061332651e-16 32.46359703110026 -1.7458161968760204 1.1103379533182804 -128.82705005422827 -5.908470224970736 105.92543758097781 -120.63045967851114 -1.575098968103777e-15 -2.7631488057029987e-15 -23.90260381809498 26.095602252500452 -168.96868467069586 2.0981180940510966 16.479684389587987 -4.988734309438677 -0.780111875488411 -18.209037768462043 -6.244992397608365 -7.951386703658792e-16 0.0 0.0 1.3152399128637018 10.507238673661355 -6.992175061521046 -0.02554997991326246 -7.919338765584305 4.421935436393976 0.0 0.0 0.0
-15.96799241786141 43.772169781524525 18.4456155005016 -117.257118570203 -71.98936828650028 -109.4146916017584 1.1838492422869737 9.623486428694017 -8.468176821397984 -7.781259135531582 -3.6777815275043605e-15 1.3438290571701196e-15 -1.5902773407317584e-15 0.0 0.0 144.73365694797099 -3.8373352285272793 -111.10265866825317 120.3503769025065 2.7503476279473715e-15 7.992454566840647e-15 34.58248261457397 0.1355335595923927 -0.09343702540604219 -127.18949943746951 -6.268010920814238 108.47207663515297 -123.597167119252 -3.0060856846196076e-15 -5.605993327131512e-15 -22.369511107761102 32.821245880838156 -167.42506978282137 2.0317904746721034 16.223236242611637 -4.600369622683794 -0.8411046861778083 -17.681998582366777 -6.876878261274792 -7.951386703658792e-16 -6.3611093629270335e-15 -7.951386703658792e-16 1.3200663042117398 10.706290811968929 -6.72690447314137 -0.04809108781350994 -7.958675404034658 3.722799870159603 1.5902773407317588e-15 2.2069531490250793e-32 1.5902773407317588e-15
